<svg width="32" height="32" viewBox="0 0 130 130" fill="none" xmlns="http://www.w3.org/2000/svg">
<path d="M58.9678 69.9215H74.7458V64.6545H73.0131C73.0131 66.6692 71.5395 68.1543 69.2888 68.1543H66.8596V60.2912H69.4788V58.5471H58.9678V60.2912H61.6157V68.1543H58.9678V69.9157V69.9215Z" fill="#1D1D1B"/>
<path d="M82.333 69.933H88.4749L93.6844 60.297H96.2977V58.5529H88.4404V60.297H90.7084L86.9092 67.3139L83.0698 60.297H85.827L85.8213 58.5529H74.4238V60.297H77.0314L82.333 69.933Z" fill="#1D1D1B"/>
<path d="M27.5508 58.5529H16.1533V60.2971H18.7609L24.0625 69.9331H30.1987L35.4139 60.2971H38.0215V58.5529H30.1641V60.2971H32.4379L28.6445 67.314L24.7935 60.2971H27.5565L27.5508 58.5529Z" fill="#1D1D1B"/>
<path d="M39.5473 64.2515C39.5473 67.6016 42.247 70.2668 47.6579 70.2668C53.0688 70.2668 55.7397 67.6016 55.7397 64.2515C55.7397 60.9474 52.9076 58.311 47.6233 58.311C42.3448 58.311 39.5415 60.9474 39.5415 64.2515H39.5473ZM50.4439 64.2802C50.4094 66.3467 49.5517 68.4996 47.5715 68.4651C45.6432 68.4305 44.797 66.3007 44.8315 64.1824C44.8718 61.9892 45.9195 60.0782 47.7269 60.1069C49.5344 60.1415 50.4842 62.0871 50.4497 64.2802H50.4439Z" fill="#1D1D1B"/>
<path d="M97.8003 64.2514C97.8003 67.6016 100.5 70.2667 105.911 70.2667C111.322 70.2667 113.993 67.6016 113.993 64.2514C113.993 60.9473 111.161 58.3109 105.882 58.3109C100.604 58.3109 97.8003 60.9473 97.8003 64.2514ZM105.98 60.1069C107.782 60.1414 108.737 62.087 108.697 64.2802C108.657 66.3467 107.805 68.4995 105.825 68.465C103.896 68.4305 103.05 66.3006 103.085 64.1823C103.125 61.9892 104.172 60.0781 105.98 60.1069Z" fill="#1D1D1B"/>
<path d="M118.487 28.0677L111.885 34.6701C117.543 43.4024 120.836 53.8155 120.836 65C120.836 95.8364 95.8364 120.836 65 120.836C34.1636 120.836 9.16401 95.8364 9.16401 65C9.16401 34.1636 34.1636 9.16401 65 9.16401C76.2075 9.16401 86.6436 12.4681 95.3932 18.1553L101.996 11.5529C91.4904 4.27117 78.746 0 65 0C29.098 0 0 29.098 0 65C0 100.896 29.098 130 65 130C100.896 130 130 100.902 130 65C130 51.2828 125.746 38.5556 118.493 28.0677H118.487Z" fill="#1D1D1B"/>
<path d="M97.6962 2.55609V4.38083C101.639 6.51642 105.346 9.03767 108.783 11.8698L99.5209 21.1316C103.015 23.8716 106.169 27.0261 108.915 30.5144L118.166 21.264C121.003 24.7063 123.525 28.4191 125.66 32.3046H127.439V2.56185H97.6904L97.6962 2.55609Z" fill="#1D1D1B"/>
</svg>
